<?xml version="1.0" encoding="utf-8"?>
<!-- Generator: Adobe Illustrator 25.2.0, SVG Export Plug-In . SVG Version: 6.00 Build 0)  -->
<svg version="1.1" id="Layer_1" xmlns="http://www.w3.org/2000/svg" xmlns:xlink="http://www.w3.org/1999/xlink" x="0px" y="0px"
	 viewBox="0 0 936 936" style="enable-background:new 0 0 936 936;" xml:space="preserve">
<style type="text/css">
	.st0{fill:url(#SVGID_1_);}
	.st1{clip-path:url(#SVGID_3_);}
	.st2{opacity:8.000000e-02;fill:url(#SVGID_4_);enable-background:new    ;}
	.st3{opacity:0.6;fill:none;stroke:#00F0FF;stroke-width:4.563;stroke-miterlimit:6.084;enable-background:new    ;}
	.st4{fill:#00F0FF;}
	.st5{opacity:0.6;fill:none;stroke:#FF007F;stroke-width:4.563;stroke-miterlimit:6.084;enable-background:new    ;}
	.st6{fill:#FF007F;}
	.st7{opacity:0.6;fill:none;stroke:#B200FF;stroke-width:4.563;stroke-miterlimit:6.084;enable-background:new    ;}
	.st8{fill:#B200FF;}
	.st9{fill:none;stroke:#00F0FF;stroke-width:4.563;stroke-miterlimit:6.084;}
	.st10{fill:none;stroke:#FF007F;stroke-width:4.563;stroke-miterlimit:6.084;}
	.st11{fill:#0B0C10;fill-opacity:0.85;stroke:url(#SVGID_5_);stroke-width:9.126;stroke-miterlimit:6.084;}
	.st12{opacity:0.3;fill:none;stroke:#00F0FF;stroke-width:3.042;stroke-miterlimit:6.084;enable-background:new    ;}
	.st13{fill:url(#SVGID_6_);stroke:#B200FF;stroke-width:3.042;stroke-miterlimit:6.084;}
	.st14{fill:url(#SVGID_7_);stroke:#B200FF;stroke-width:3.042;stroke-miterlimit:6.084;}
	.st15{fill:url(#SVGID_8_);stroke:#B200FF;stroke-width:3.042;stroke-miterlimit:6.084;}
	.st16{opacity:0.8;fill:#00F0FF;enable-background:new    ;}
	.st17{font-family:'CourierNewPS-BoldMT';}
	.st18{font-size:13.689px;}
	.st19{opacity:0.8;fill:#FF007F;enable-background:new    ;}
	.st20{opacity:0.9;fill:#FF007F;enable-background:new    ;}
	.st21{opacity:0.9;fill:#00F0FF;enable-background:new    ;}
	.st22{fill:none;stroke:#FFFFFF;stroke-width:12.168;stroke-linecap:round;stroke-miterlimit:6.084;}
	.st23{fill:#FFE600;}
	.st24{opacity:0.9;fill:#B200FF;enable-background:new    ;}
	.st25{fill:#0B0C10;}
	.st26{font-family:'Arial-Black';}
	.st27{font-size:15.21px;}
	.st28{letter-spacing:2;}
	.st29{fill:none;stroke:#FF007F;stroke-width:3.042;stroke-miterlimit:6.084;}
	.st30{fill:none;stroke:#00F0FF;stroke-width:3.042;stroke-miterlimit:6.084;}
	.st31{font-size:74.88px;}
	.st32{letter-spacing:11;}
	.st33{fill:#FFFFFF;}
	.st34{opacity:0.85;fill:#00F0FF;enable-background:new    ;}
	.st35{opacity:0.85;fill:#FF007F;enable-background:new    ;}
	.st36{font-size:37.44px;}
	.st37{letter-spacing:32;}
</style>
<radialGradient id="SVGID_1_" cx="1.8277" cy="1151.7434" r="0.7" gradientTransform="matrix(935.9999 0 0 -936 1.608086e-02 1078499.875)" gradientUnits="userSpaceOnUse">
	<stop  offset="0" style="stop-color:#160D24"/>
	<stop  offset="0.5" style="stop-color:#0B0C10"/>
	<stop  offset="1" style="stop-color:#050608"/>
</radialGradient>
<path class="st0" d="M1447.5,0H1974c113.1,0,204.7,91.7,204.7,204.7v526.5c0,113.1-91.7,204.7-204.7,204.7h-526.5
	c-113.1,0-204.7-91.7-204.7-204.7V204.7C1242.7,91.7,1334.4,0,1447.5,0z"/>
<g>
	<defs>
		<rect id="SVGID_2_" y="0" width="936" height="936"/>
	</defs>
	<clipPath id="SVGID_3_">
		<use xlink:href="#SVGID_2_"  style="overflow:visible;"/>
	</clipPath>
	<g id="cloud-icon" transform="translate(400, 210) scale(1.3) translate(-400, -210)" class="st1">
		
			<linearGradient id="SVGID_4_" gradientUnits="userSpaceOnUse" x1="92.3077" y1="934.6154" x2="93.3077" y2="933.6154" gradientTransform="matrix(425.88 0 0 -425.88 -39023.4844 398209.3438)">
			<stop  offset="0" style="stop-color:#00F0FF"/>
			<stop  offset="0.5" style="stop-color:#B200FF"/>
			<stop  offset="1" style="stop-color:#FF007F"/>
		</linearGradient>
		<polygon class="st2" points="452.3,175.4 616.1,257.3 616.1,421.1 452.3,503 288.5,421.1 288.5,257.3 		"/>
		<path class="st3" d="M276.8,368.4h-58.5l-23.4,23.4h-70.2"/>
		<circle class="st4" cx="124.7" cy="391.8" r="3.5"/>
		<path class="st5" d="M627.8,368.4h58.5l23.4-23.4h70.2"/>
		<circle class="st6" cx="779.9" cy="345" r="3.5"/>
		<path class="st7" d="M452.3,245.6v-35.1l35.1-35.1h46.8"/>
		<rect x="534.2" y="171.9" class="st8" width="7" height="7"/>
		<path class="st9" d="M253.4,315.8V269h46.8"/>
		<circle class="st4" cx="253.4" cy="269" r="3.5"/>
		<path class="st10" d="M651.2,315.8V269h-46.8"/>
		<circle class="st6" cx="651.2" cy="269" r="3.5"/>
		<path class="st9" d="M253.4,362.6v93.6h70.2"/>
		<circle class="st4" cx="253.4" cy="456.2" r="3.5"/>
		<path class="st10" d="M651.2,362.6v93.6H581"/>
		<circle class="st6" cx="651.2" cy="456.2" r="3.5"/>
		<path class="st5" d="M306.1,432.8L271,397.7v-58.5l46.8-46.8h46.8l46.8-46.8h70.2l46.8,46.8h46.8l46.8,46.8v58.5l-35.1,35.1H306.1
			z"/>
		<path class="st3" d="M317.8,432.8l-35.1-35.1v-58.5l46.8-46.8h46.8l46.8-46.8h70.2l46.8,46.8h46.8l46.8,46.8v58.5l-35.1,35.1
			H317.8z"/>
		
			<linearGradient id="SVGID_5_" gradientUnits="userSpaceOnUse" x1="92.2532" y1="934.5609" x2="93.2532" y2="933.5609" gradientTransform="matrix(456.3 0 0 -243.36 -41843.1836 227693.5469)">
			<stop  offset="0" style="stop-color:#00F0FF"/>
			<stop  offset="0.5" style="stop-color:#B200FF"/>
			<stop  offset="1" style="stop-color:#FF007F"/>
		</linearGradient>
		<path class="st11" d="M311.9,432.8l-35.1-35.1v-58.5l46.8-46.8h46.8l46.8-46.8h70.2l46.8,46.8H581l46.8,46.8v58.5l-35.1,35.1
			H311.9z"/>
		<polygon class="st10" points="428.9,432.8 475.7,432.8 452.3,456.2 		"/>
		<polygon class="st6" points="434.8,432.8 469.9,432.8 452.3,450.3 		"/>
		<line class="st12" x1="311.9" y1="315.8" x2="382.1" y2="315.8"/>
		<line class="st12" x1="522.5" y1="315.8" x2="592.7" y2="315.8"/>
		<line class="st12" x1="288.5" y1="356.7" x2="382.1" y2="356.7"/>
		<line class="st12" x1="522.5" y1="356.7" x2="616.1" y2="356.7"/>
		<line class="st12" x1="311.9" y1="397.7" x2="382.1" y2="397.7"/>
		<line class="st12" x1="522.5" y1="397.7" x2="592.7" y2="397.7"/>
		
			<linearGradient id="SVGID_6_" gradientUnits="userSpaceOnUse" x1="92.3077" y1="934.2308" x2="93.3077" y2="934.2308" gradientTransform="matrix(182.52 0 0 -30.42 -16465.8887 28735.0586)">
			<stop  offset="0" style="stop-color:#00F0FF;stop-opacity:0.2"/>
			<stop  offset="1" style="stop-color:#FF007F;stop-opacity:0.2"/>
		</linearGradient>
		<path class="st13" d="M384.4,304.1h135.7c1.3,0,2.3,1,2.3,2.3v18.7c0,1.3-1,2.3-2.3,2.3H384.4c-1.3,0-2.3-1-2.3-2.3v-18.7
			C382.1,305.1,383.2,304.1,384.4,304.1z"/>
		
			<linearGradient id="SVGID_7_" gradientUnits="userSpaceOnUse" x1="92.3077" y1="934.2308" x2="93.3077" y2="934.2308" gradientTransform="matrix(182.52 0 0 -30.42 -16465.8887 28776.0098)">
			<stop  offset="0" style="stop-color:#00F0FF;stop-opacity:0.2"/>
			<stop  offset="1" style="stop-color:#FF007F;stop-opacity:0.2"/>
		</linearGradient>
		<path class="st14" d="M384.4,345h135.7c1.3,0,2.3,1,2.3,2.3v18.7c0,1.3-1,2.3-2.3,2.3H384.4c-1.3,0-2.3-1-2.3-2.3v-18.7
			C382.1,346.1,383.2,345,384.4,345z"/>
		
			<linearGradient id="SVGID_8_" gradientUnits="userSpaceOnUse" x1="92.3077" y1="934.2308" x2="93.3077" y2="934.2308" gradientTransform="matrix(182.52 0 0 -30.42 -16465.8887 28816.959)">
			<stop  offset="0" style="stop-color:#00F0FF;stop-opacity:0.2"/>
			<stop  offset="1" style="stop-color:#FF007F;stop-opacity:0.2"/>
		</linearGradient>
		<path class="st15" d="M384.4,386h135.7c1.3,0,2.3,1,2.3,2.3V407c0,1.3-1,2.3-2.3,2.3H384.4c-1.3,0-2.3-1-2.3-2.3v-18.7
			C382.1,387,383.2,386,384.4,386z"/>
		<text transform="matrix(0.7692 0 0 0.7692 347.0079 320.4421)" class="st16 st17 st18">ND-01</text>
		<text transform="matrix(0.7692 0 0 0.7692 347.0079 361.392)" class="st19 st17 st18">ND-02</text>
		<text transform="matrix(0.7692 0 0 0.7692 347.0079 402.3419)" class="st16 st17 st18">ND-03</text>
		<circle class="st4" cx="399.7" cy="315.8" r="4.1"/>
		<circle class="st4" cx="414.9" cy="315.8" r="3.5"/>
		<path class="st20" d="M430.1,311.1h38.6c0.6,0,1.2,0.5,1.2,1.2v7c0,0.6-0.5,1.2-1.2,1.2h-38.6c-0.6,0-1.2-0.5-1.2-1.2v-7
			C428.9,311.6,429.4,311.1,430.1,311.1z"/>
		<path class="st21" d="M482.7,311.1h15.2c0.6,0,1.2,0.5,1.2,1.2v7c0,0.6-0.5,1.2-1.2,1.2h-15.2c-0.6,0-1.2-0.5-1.2-1.2v-7
			C481.6,311.6,482.1,311.1,482.7,311.1z"/>
		<line class="st22" x1="508.5" y1="315.8" x2="514.3" y2="315.8"/>
		<circle class="st6" cx="399.7" cy="356.7" r="4.1"/>
		<path class="st21" d="M416,352h62c0.6,0,1.2,0.5,1.2,1.2v7c0,0.6-0.5,1.2-1.2,1.2h-62c-0.6,0-1.2-0.5-1.2-1.2v-7
			C414.9,352.6,415.4,352,416,352z"/>
		<circle class="st23" cx="493.3" cy="356.7" r="3.5"/>
		<circle class="st23" cx="508.5" cy="356.7" r="3.5"/>
		<circle class="st4" cx="399.7" cy="397.7" r="4.1"/>
		<circle class="st4" cx="414.9" cy="397.7" r="3.5"/>
		<circle class="st4" cx="430.1" cy="397.7" r="3.5"/>
		<path class="st24" d="M447.6,393h50.3c0.6,0,1.2,0.5,1.2,1.2v7c0,0.6-0.5,1.2-1.2,1.2h-50.3c-0.6,0-1.2-0.5-1.2-1.2v-7
			C446.5,393.5,447,393,447.6,393z"/>
		<path class="st6" d="M506.1,393h5.9c0.6,0,1.2,0.5,1.2,1.2v7c0,0.6-0.5,1.2-1.2,1.2h-5.9c-0.6,0-1.2-0.5-1.2-1.2v-7
			C505,393.5,505.5,393,506.1,393z"/>
		<path class="st6" d="M426.6,263.1H478c1.9,0,3.5,1.6,3.5,3.5v14c0,1.9-1.6,3.5-3.5,3.5h-51.5c-1.9,0-3.5-1.6-3.5-3.5v-14
			C423.1,264.7,424.6,263.1,426.6,263.1z"/>
		<text transform="matrix(0.7692 0 0 0.7692 431.2477 278.3218)" class="st25 st26 st27 st28">SAAS</text>
		<circle class="st4" cx="218.3" cy="257.3" r="2.3"/>
		<circle class="st6" cx="241.7" cy="222.2" r="3.5"/>
		<circle class="st4" cx="662.9" cy="233.9" r="2.3"/>
		<circle class="st8" cx="709.7" cy="292.4" r="3.5"/>
		<circle class="st23" cx="686.3" cy="456.2" r="2.3"/>
		<rect x="194.9" y="432.8" class="st29" width="11.7" height="11.7"/>
		<rect x="709.7" y="409.4" class="st30" width="9.4" height="9.4"/>
		<path class="st30" d="M235.9,491.3h11.7V503"/>
		<path class="st29" d="M662.9,198.8h-11.7v11.7"/>
	</g>
	<g id="typography" class="st1">
		<text transform="matrix(1 0 0 1 197.3647 666.9004)" class="st19 st26 st31 st32">SPIOKOKS</text>
		<text transform="matrix(1 0 0 1 206.7246 666.9004)" class="st16 st26 st31 st32">SPIOKOKS</text>
		<text transform="matrix(1 0 0 1 202.0449 666.9004)" class="st33 st26 st31 st32">SPIOKOKS</text>
		<rect x="175.5" y="625.9" class="st34" width="585" height="4.7"/>
		<rect x="175.5" y="643.5" class="st35" width="585" height="2.3"/>
		<text transform="matrix(1 0 0 1 329.9311 731.25)" class="st8 st17 st36 st37">CLOUD</text>
		<text transform="matrix(1 0 0 1 329.9311 731.25)" class="st33 st17 st36 st37">CLOUD</text>
	</g>
</g>
</svg>
